<?xml version="1.0" encoding="UTF-8"?><svg id="Layer_1" xmlns="http://www.w3.org/2000/svg" viewBox="0 0 1143.19 613.15"><defs><style>.cls-1{font-size:72px;}.cls-1,.cls-2,.cls-3,.cls-4,.cls-5,.cls-6,.cls-7,.cls-8,.cls-9,.cls-10,.cls-11,.cls-12,.cls-13,.cls-14,.cls-15,.cls-16,.cls-17,.cls-18,.cls-19,.cls-20,.cls-21,.cls-22,.cls-23,.cls-24,.cls-25,.cls-26,.cls-27,.cls-28,.cls-29,.cls-30,.cls-31,.cls-32,.cls-33,.cls-34,.cls-35{font-family:Impact, Impact;}.cls-1,.cls-2,.cls-3,.cls-4,.cls-5,.cls-6,.cls-7,.cls-8,.cls-9,.cls-10,.cls-11,.cls-12,.cls-13,.cls-14,.cls-15,.cls-16,.cls-17,.cls-18,.cls-19,.cls-20,.cls-21,.cls-22,.cls-23,.cls-24,.cls-25,.cls-26,.cls-27,.cls-28,.cls-29,.cls-30,.cls-31,.cls-34,.cls-35{isolation:isolate;}.cls-1,.cls-4,.cls-19,.cls-27{fill:#e377c2;}.cls-36{letter-spacing:.02em;}.cls-2,.cls-3,.cls-4,.cls-5,.cls-6,.cls-8,.cls-9,.cls-10,.cls-11,.cls-12{font-size:34px;}.cls-2,.cls-14,.cls-16,.cls-29{fill:#17becf;}.cls-3,.cls-21,.cls-35{fill:#2ca02c;}.cls-5,.cls-18,.cls-26,.cls-32{fill:#d62728;}.cls-6,.cls-15,.cls-17,.cls-28,.cls-33{fill:#1f77b4;}.cls-7,.cls-10,.cls-23{fill:#ff7f0e;}.cls-7,.cls-33{font-size:111px;}.cls-8,.cls-25{fill:#8c564b;}.cls-9,.cls-24,.cls-30{fill:#7f7f7f;}.cls-11,.cls-22,.cls-31,.cls-34{fill:#9467bd;}.cls-12,.cls-13,.cls-20{fill:#bcbd22;}.cls-13,.cls-14,.cls-15{font-size:53px;}.cls-37{letter-spacing:.02em;}.cls-16,.cls-17,.cls-18,.cls-19,.cls-20,.cls-21,.cls-22,.cls-23,.cls-24,.cls-25{font-size:14px;}.cls-38{letter-spacing:.02em;}.cls-26,.cls-27,.cls-28,.cls-29,.cls-30,.cls-31,.cls-32{font-size:59px;}.cls-34{font-size:92px;}.cls-35{font-size:104px;}</style></defs><text class="cls-7" transform="translate(453.21 195.44)"><tspan x="0" y="0">Vaccine</tspan></text><text class="cls-33" transform="translate(270.49 387.63)"><tspan x="0" y="0">Hemagglutinin</tspan></text><text class="cls-35" transform="translate(405.71 295)"><tspan x="0" y="0">GeneticDiversi</tspan><tspan class="cls-37" x="628.93" y="0">t</tspan><tspan x="662.7" y="0">y</tspan></text><text class="cls-26" transform="translate(386.98 451.96)"><tspan x="0" y="0">AntigenicDrift</tspan></text><text class="cls-31" transform="translate(746.66 441.32)"><tspan x="0" y="0">Neuraminidase</tspan></text><text class="cls-34" transform="translate(2.17 458.57)"><tspan x="0" y="0">Mutations</tspan></text><text class="cls-27" transform="translate(16.3 509.76)"><tspan x="0" y="0">TransmissionBottlenecks</tspan></text><text class="cls-30" transform="translate(566.54 564.71)"><tspan x="0" y="0">PositiveSelection</tspan></text><text class="cls-1" transform="translate(10.4 374.03)"><tspan x="0" y="0">ViralRna</tspan></text><text class="cls-29" transform="translate(438.34 100.29)"><tspan x="0" y="0">AvianRese</tspan><tspan class="cls-38" x="252.36" y="0">r</tspan><tspan x="274.55" y="0">voirs</tspan></text><text class="cls-28" transform="translate(109.62 236.53)"><tspan x="0" y="0">GeneticDrift</tspan></text><text class="cls-32" transform="translate(827.97 201.44)"><tspan x="0" y="0">AvianVirus</tspan></text><text class="cls-26" transform="translate(171.8 173.41)"><tspan x="0" y="0">Antibodies</tspan></text><text class="cls-31" transform="translate(836.49 145.01)"><tspan x="0" y="0">ViralFitness</tspan></text><text class="cls-13" transform="translate(0 294.37)"><tspan x="0" y="0">Influenza</tspan></text><text class="cls-14" transform="translate(341.26 47.46)"><tspan x="0" y="0">InfluenzaA</tspan></text><text class="cls-23" transform="translate(148.75 590.6)"><tspan x="0" y="0">AvianNs1</tspan></text><text class="cls-21" transform="translate(143.19 189.7)"><tspan x="0" y="0">AvianNs2</tspan></text><text class="cls-18" transform="translate(6.66 72.58)"><tspan x="0" y="0">AvianH1n1Has</tspan></text><text class="cls-19" transform="translate(1025.89 513.58)"><tspan x="0" y="0">Avian-likeH1n1</tspan></text><text class="cls-24" transform="translate(77.3 527.49)"><tspan x="0" y="0">Avian-likeHa</tspan></text><text class="cls-20" transform="translate(473.81 589.19)"><tspan x="0" y="0">InfectiousDisease</tspan></text><text class="cls-20" transform="translate(1009.94 551.39)"><tspan x="0" y="0">ViralGenomes</tspan></text><text class="cls-17" transform="translate(63.24 56.36)"><tspan x="0" y="0">PhylodynamicApproaches</tspan></text><text class="cls-17" transform="translate(893.14 90.58)"><tspan x="0" y="0">Epidemic</tspan></text><text class="cls-15" transform="translate(768.48 500.77)"><tspan x="0" y="0">Phylogeny</tspan></text><text class="cls-25" transform="translate(11.46 237.54)"><tspan x="0" y="0">AntigenicSites</tspan></text><text class="cls-20" transform="translate(846.15 72.75)"><tspan x="0" y="0">Nasopha</tspan><tspan class="cls-38" x="50.04" y="0">r</tspan><tspan x="55.3" y="0">yngealSwabs</tspan></text><text class="cls-11" transform="translate(156.27 541.61)"><tspan x="0" y="0">Next-generationSequencing</tspan></text><text class="cls-17" transform="translate(595.44 49.29)"><tspan x="0" y="0">Single-nucleotideVariants</tspan></text><text class="cls-23" transform="translate(2.85 196.77)"><tspan x="0" y="0">GeneticSequence</tspan></text><text class="cls-21" transform="translate(520.33 118.44)"><tspan x="0" y="0">NonsynonymousMutations</tspan></text><text class="cls-18" transform="translate(19.83 143.44)"><tspan x="0" y="0">ProlongedInfections</tspan></text><text class="cls-22" transform="translate(191.34 89.01)"><tspan x="0" y="0">PhylogeneticTrees</tspan></text><text class="cls-25" transform="translate(726.93 209.85)"><tspan x="0" y="0">ViralReplication</tspan></text><text class="cls-19" transform="translate(361.23 590.76)"><tspan x="0" y="0">AntigenicVariants</tspan></text><text class="cls-24" transform="translate(10.97 179.01)"><tspan x="0" y="0">GenomicSequences</tspan></text><text class="cls-20" transform="translate(218.99 187.48)"><tspan x="0" y="0">GeneSegments</tspan></text><text class="cls-16" transform="translate(595.77 592.12)"><tspan x="0" y="0">ImmuneEscape</tspan></text><text class="cls-17" transform="translate(1012.32 100.29)"><tspan x="0" y="0">MammalianAdaptation</tspan></text><text class="cls-23" transform="translate(917.64 58.37)"><tspan x="0" y="0">AvianInfluenzaVirus</tspan></text><text class="cls-21" transform="translate(10.4 163.21)"><tspan x="0" y="0">MammalianTransmission</tspan></text><text class="cls-18" transform="translate(310.38 68.44)"><tspan x="0" y="0">AirborneTransmission</tspan></text><text class="cls-22" transform="translate(996.65 476.97)"><tspan x="0" y="0">MutationEmergence</tspan></text><text class="cls-8" transform="translate(201.63 122.44)"><tspan x="0" y="0">HostAdaptation</tspan></text><text class="cls-19" transform="translate(1058.15 84.29)"><tspan x="0" y="0">TissueTropism</tspan></text><text class="cls-24" transform="translate(954.37 85.86)"><tspan x="0" y="0">Receptor-binding</tspan></text><text class="cls-20" transform="translate(218.42 56.36)"><tspan x="0" y="0">FounderEffects</tspan></text><text class="cls-16" transform="translate(794.02 56.53)"><tspan x="0" y="0">Respirato</tspan><tspan class="cls-38" x="55.88" y="0">r</tspan><tspan x="61.14" y="0">yDroplets</tspan></text><text class="cls-4" transform="translate(156.18 574.34)"><tspan x="0" y="0">HaGene</tspan></text><text class="cls-23" transform="translate(152.13 605.26)"><tspan x="0" y="0">ReceptorBinding</tspan></text><text class="cls-21" transform="translate(586.23 608.52)"><tspan x="0" y="0">MembraneFusion</tspan></text><text class="cls-18" transform="translate(307.44 89.01)"><tspan x="0" y="0">ImmuneResponses</tspan></text><text class="cls-22" transform="translate(56.02 580.4)"><tspan x="0" y="0">Avian-likeVirus</tspan></text><text class="cls-9" transform="translate(954.57 334.41)"><tspan x="0" y="0">AvianHa1</tspan></text><text class="cls-12" transform="translate(20.4 561.94)"><tspan x="0" y="0">AvianHa2</tspan></text><text class="cls-2" transform="translate(647.38 493.99)"><tspan x="0" y="0">AvianNp</tspan></text><text class="cls-6" transform="translate(960.18 372.16)"><tspan x="0" y="0">AvianNa</tspan></text><text class="cls-10" transform="translate(281.58 285.88)"><tspan x="0" y="0">AvianM1</tspan></text><text class="cls-3" transform="translate(270.49 571.32)"><tspan x="0" y="0">AvianM2</tspan></text><text class="cls-21" transform="translate(142.04 111.36)"><tspan x="0" y="0">Infection</tspan></text><text class="cls-22" transform="translate(212.98 592.61)"><tspan x="0" y="0">TransmissionChains</tspan></text><text class="cls-25" transform="translate(830.96 603.69)"><tspan x="0" y="0">PhylogeneticAnalysis</tspan></text><text class="cls-19" transform="translate(891.37 583.04)"><tspan x="0" y="0">EffectivePopulationSize</tspan></text><text class="cls-5" transform="translate(458.3 225.55)"><tspan x="0" y="0">Virus</tspan></text><text class="cls-16" transform="translate(1039.98 495.75)"><tspan x="0" y="0">CellEnt</tspan><tspan class="cls-38" x="39.98" y="0">r</tspan><tspan x="45.25" y="0">y</tspan></text><text class="cls-17" transform="translate(488.47 608.52)"><tspan x="0" y="0">Neutralization</tspan></text><text class="cls-23" transform="translate(813.11 583.58)"><tspan x="0" y="0">Mutagenesis</tspan></text><text class="cls-21" transform="translate(104.35 71.29)"><tspan x="0" y="0">MolecularPheno</tspan><tspan class="cls-37" x="94.32" y="0">t</tspan><tspan x="98.87" y="0">ypes</tspan></text><text class="cls-18" transform="translate(1040.47 534.12)"><tspan x="0" y="0">Virions</tspan></text><text class="cls-22" transform="translate(24.13 216.21)"><tspan x="0" y="0">Infectivi</tspan><tspan class="cls-37" x="47.54" y="0">t</tspan><tspan x="52.08" y="0">y</tspan></text><text class="cls-22" transform="translate(405.22 195.44)"><tspan x="0" y="0">Genome</tspan></text><text class="cls-19" transform="translate(703.45 583.41)"><tspan x="0" y="0">MutationalEffects</tspan></text><text class="cls-24" transform="translate(393.83 561.94)"><tspan x="0" y="0">Pathogenici</tspan><tspan class="cls-37" x="69.17" y="0">t</tspan><tspan x="73.72" y="0">y</tspan></text><text class="cls-20" transform="translate(257.01 605.26)"><tspan x="0" y="0">ReceptorSpecifici</tspan><tspan class="cls-37" x="103.54" y="0">t</tspan><tspan x="108.09" y="0">y</tspan></text><text class="cls-16" transform="translate(62.67 122.44)"><tspan x="0" y="0">Epistasis</tspan></text><text class="cls-17" transform="translate(488.55 563.61)"><tspan x="0" y="0">ViralStrains</tspan></text><text class="cls-23" transform="translate(372.85 605.26)"><tspan x="0" y="0">GlycanReceptors</tspan></text><text class="cls-21" transform="translate(10.32 102.44)"><tspan x="0" y="0">Transmission</tspan></text><text class="cls-18" transform="translate(2.85 57.36)"><tspan x="0" y="0">HaProtein</tspan></text><text class="cls-22" transform="translate(835.91 90.44)"><tspan x="0" y="0">Epitopes</tspan></text><text class="cls-25" transform="translate(100.82 91.36)"><tspan x="0" y="0">AnimalModels</tspan></text><text class="cls-19" transform="translate(865.68 42.55)"><tspan x="0" y="0">Pathogenesis</tspan></text><text class="cls-24" transform="translate(1037.74 68.44)"><tspan x="0" y="0">ViralLoad</tspan></text><text class="cls-20" transform="translate(11.46 122.44)"><tspan x="0" y="0">Viremia</tspan></text><text class="cls-16" transform="translate(690.71 602.41)"><tspan x="0" y="0">GeneDiversi</tspan><tspan class="cls-37" x="69.64" y="0">t</tspan><tspan x="74.18" y="0">y</tspan></text><text class="cls-17" transform="translate(23.64 87.44)"><tspan x="0" y="0">Genomes</tspan></text><text class="cls-23" transform="translate(1091.42 198.77)"><tspan x="0" y="0">Covid-19</tspan></text><text class="cls-21" transform="translate(1061.74 218.44)"><tspan x="0" y="0">Lineages</tspan></text><text class="cls-8" transform="translate(203.6 268.4)"><tspan x="0" y="0">Mice</tspan></text><text class="cls-24" transform="translate(1097.43 179.01)"><tspan x="0" y="0">Mev</tspan><tspan class="cls-36" x="23.31" y="0">7</tspan><tspan x="29.1" y="0">1</tspan></text><text class="cls-25" transform="translate(1098 68.44)"><tspan x="0" y="0">Viruses</tspan></text><text class="cls-19" transform="translate(776.75 602.41)"><tspan x="0" y="0">Genetics</tspan></text></svg>